<svg xmlns="http://www.w3.org/2000/svg" version="1.1" xmlns:xlink="http://www.w3.org/1999/xlink" xmlns:svgjs="http://svgjs.dev/svgjs" width="1000" height="1000" viewBox="0 0 1000 1000"><rect width="1000" height="1000" fill="#010536"></rect><g transform="matrix(0.7,0,0,0.7,149.62663740800417,163.92234817813772)"><svg viewBox="0 0 257 247" data-background-color="#010536" preserveAspectRatio="xMidYMid meet" height="961" width="1000" xmlns="http://www.w3.org/2000/svg" xmlns:xlink="http://www.w3.org/1999/xlink"><g id="tight-bounds" transform="matrix(1,0,0,1,0.13707740877561037,-0.09999999999999432)"><svg viewBox="0 0 256.7258451824488 247.2" height="247.2" width="256.7258451824488"><g><svg viewBox="0 0 395.52 380.8441800260329" height="247.2" width="256.7258451824488"><g transform="matrix(1,0,0,1,0,315.5267394410238)"><svg viewBox="0 0 395.52 65.31744058500914" height="65.31744058500914" width="395.52"><g id="textblocktransform"><svg viewBox="0 0 395.52 65.31744058500914" height="65.31744058500914" width="395.52" id="textblock"><g><svg viewBox="0 0 395.52 65.31744058500914" height="65.31744058500914" width="395.52"><g transform="matrix(1,0,0,1,0,0)"><svg width="395.52" viewBox="0 -38.43 240.35 39.7" height="65.31744058500914" data-palette-color="#fbfbf8"><path d="M30.42-35.16L30.42-35.16 33.35-35.01Q33.3-34.91 29.54-19.24 25.78-3.56 24.41-0.05L24.41-0.05Q23.93 0.05 23.44 0.05L23.44 0.05Q22.07 0.05 20.36-0.29L20.36-0.29Q19.04-4.2 16.36-16.11L16.36-16.11Q13.33-3.66 12.01-0.05L12.01-0.05Q11.52 0.05 11.04 0.05L11.04 0.05Q9.67 0.05 7.96-0.29L7.96-0.29Q7.23-2.49 6.27-6.3 5.32-10.11 4.3-14.75 3.27-19.38 2.51-22.97 1.76-26.56 0.93-30.66 0.1-34.77 0-35.16L0-35.16 2.78-35.16Q4.74-26.17 9.81-6.35L9.81-6.35Q10.55-8.98 12.3-15.53 14.06-22.07 14.65-24.17L14.65-24.17Q13.96-27.29 12.4-35.16L12.4-35.16 15.19-35.16Q17.14-26.17 22.22-6.35L22.22-6.35Q29.74-33.79 30.42-35.16ZM36.42-25.1L36.42-25.1 38.67-24.61Q39.06-20.61 39.35-12.04 39.65-3.47 39.74-1.42L39.74-1.42Q39.3 0.1 38.03 0.1L38.03 0.1Q37.16 0.1 36.35-0.61 35.54-1.32 35.35-2.34L35.35-2.34Q35.45-4.35 35.74-12.77 36.03-21.19 36.42-25.1ZM37.11-33.84L37.11-33.84Q38.43-33.84 39.3-32.69 40.18-31.54 40.18-30.08L40.18-30.08Q40.18-29 39.67-28.34 39.16-27.69 38.28-27.69L38.28-27.69Q36.91-27.69 36.13-28.81 35.35-29.93 35.35-31.45L35.35-31.45Q35.35-32.52 35.81-33.18 36.28-33.84 37.11-33.84ZM44.18-2.34L45.26-33.5 47.5-33.01 48.58-1.42Q48.14 0.1 46.87 0.1L46.87 0.1Q45.99 0.1 45.19-0.61 44.38-1.32 44.18-2.34L44.18-2.34ZM70.79-37.3L70.16 1.27 67.47 0.73Q67.47-0.24 67.42-0.73L67.42-0.73Q64.84 0.93 61.96 0.93L61.96 0.93Q57.51 0.93 55.05-2.88 52.58-6.69 52.58-11.52L52.58-11.52Q52.58-14.01 52.95-16.21 53.31-18.41 54.22-20.73 55.12-23.05 57.05-24.41 58.98-25.78 61.71-25.78L61.71-25.78Q64.4-25.78 66.74-24.46L66.74-24.46Q67.13-29.64 67.13-34.91L67.13-34.91Q67.13-37.3 67.08-38.43L67.08-38.43Q69.43-37.99 70.79-37.3L70.79-37.3ZM67.03-3.96L67.03-3.96 66.89-19.68Q66.3-20.9 65.06-21.61 63.81-22.31 62.39-22.31L62.39-22.31Q60.49-22.31 59.15-21.09 57.81-19.87 57.24-17.85 56.68-15.82 56.46-14.06 56.24-12.3 56.24-10.35L56.24-10.35Q56.24-2.05 61.81-2.05L61.81-2.05Q63.66-2.05 65.2-2.56 66.74-3.08 67.03-3.96ZM89.78-23.54L89.78-23.54 89.3-21.58Q84.56-23.54 81.92-23.54L81.92-23.54Q79.58-23.54 78.63-22.83 77.68-22.12 77.68-19.82L77.68-19.82Q77.68-17.97 79.02-16.75 80.36-15.53 82.27-14.82 84.17-14.11 86.1-13.31 88.03-12.5 89.37-10.94 90.71-9.38 90.71-7.08L90.71-7.08Q90.71-3.96 88.42-1.61 86.12 0.73 82.46 0.78L82.46 0.78Q79.78 0.78 77.43-0.34 75.09-1.46 73.72-3.17L73.72-3.17 75.14-4.64Q75.72-4.39 76.87-3.86 78.02-3.32 78.51-3.15 78.99-2.98 79.95-2.78 80.9-2.59 81.97-2.59L81.97-2.59Q84.27-2.59 85.73-3.61 87.2-4.64 87.2-6.49L87.2-6.49Q87.2-7.71 86.51-8.57 85.83-9.42 84.71-9.96 83.58-10.5 82.24-10.99 80.9-11.47 79.56-12.08 78.21-12.7 77.09-13.55 75.97-14.4 75.28-15.87 74.6-17.33 74.6-19.34L74.6-19.34Q74.6-22.27 76.19-24.24 77.77-26.22 80.65-26.22L80.65-26.22Q81.78-26.22 83.19-25.88 84.61-25.54 85.44-25.24 86.27-24.95 87.91-24.29 89.54-23.63 89.78-23.54ZM107.02-23.63L107.02-23.63 107.56-21.44Q106.24-21.34 103.5-20.92 100.77-20.51 99.4-20.41L99.4-20.41Q99.65-18.7 99.69-15.92 99.74-13.13 99.82-11.11 99.89-9.08 100.26-7.06 100.62-5.03 101.77-3.96 102.92-2.88 104.87-2.88L104.87-2.88Q106.34-2.88 108.53-3.56L108.53-3.56Q109.46-1.76 109.9-0.93L109.9-0.93Q106.04 0.44 102.09 0.44L102.09 0.44Q100.62 0.44 99.55-0.44 98.47-1.32 97.89-2.64 97.3-3.96 96.94-5.98 96.57-8.01 96.47-9.81 96.37-11.62 96.37-13.96L96.37-13.96Q96.37-15.23 96.4-17.48 96.42-19.73 96.42-20.56L96.42-20.56Q95.93-20.51 94.13-20.48 92.32-20.46 92.03-20.46L92.03-20.46Q91.69-23.73 91.69-23.83L91.69-23.83Q92.03-23.73 92.81-23.73L92.81-23.73Q93.25-23.73 94.23-23.8 95.2-23.88 95.69-23.88L95.69-23.88Q95.89-23.88 96.2-23.85 96.52-23.83 96.62-23.83L96.62-23.83Q96.81-29.2 97.06-32.57L97.06-32.57 99.26-32.03Q99.3-30.86 99.33-29.52 99.35-28.17 99.38-26.54 99.4-24.9 99.4-24.02L99.4-24.02Q100.67-23.93 103.21-23.83 105.75-23.73 107.02-23.63ZM113.61-21.09L113.61-21.09 112.63-23.58Q113.9-24.85 115.85-25.61 117.81-26.37 119.71-26.37L119.71-26.37Q127.96-26.37 127.96-12.11L127.96-12.11Q127.96-10.16 127.74-6.35 127.52-2.54 127.52-0.63L127.52-0.63Q127.13 0.88 126.01 0.88L126.01 0.88Q125.13 0.88 124.4 0 123.67-0.88 123.67-1.95L123.67-1.95Q123.67-2.29 123.72-2.44L123.72-2.44Q120.69 0.49 117.27 0.49L117.27 0.49Q114.68 0.49 112.75-1.39 110.82-3.27 110.82-5.96L110.82-5.96Q110.82-10.5 114.36-14.16 117.9-17.82 122.4-17.82L122.4-17.82Q122.59-17.82 122.79-17.8 122.98-17.77 123.25-17.72 123.52-17.68 123.67-17.68L123.67-17.68Q123.28-23.39 119.13-23.39L119.13-23.39Q116.68-23.39 113.61-21.09ZM123.81-5.81L123.81-5.81Q123.91-9.23 123.91-10.99L123.91-10.99Q123.91-12.45 123.81-15.09L123.81-15.09 123.42-15.09Q119.96-15.04 117.1-12.5 114.24-9.96 114.24-6.35L114.24-6.35Q114.24-4.79 115.19-3.86 116.15-2.93 117.51-2.93L117.51-2.93Q119.66-2.93 123.81-5.81ZM145.25-23.63L145.25-23.63 145.78-21.44Q144.46-21.34 141.73-20.92 139-20.51 137.63-20.41L137.63-20.41Q137.87-18.7 137.92-15.92 137.97-13.13 138.04-11.11 138.12-9.08 138.48-7.06 138.85-5.03 140-3.96 141.14-2.88 143.1-2.88L143.1-2.88Q144.56-2.88 146.76-3.56L146.76-3.56Q147.69-1.76 148.13-0.93L148.13-0.93Q144.27 0.44 140.31 0.44L140.31 0.44Q138.85 0.44 137.78-0.44 136.7-1.32 136.12-2.64 135.53-3.96 135.16-5.98 134.8-8.01 134.7-9.81 134.6-11.62 134.6-13.96L134.6-13.96Q134.6-15.23 134.63-17.48 134.65-19.73 134.65-20.56L134.65-20.56Q134.16-20.51 132.36-20.48 130.55-20.46 130.26-20.46L130.26-20.46Q129.91-23.73 129.91-23.83L129.91-23.83Q130.26-23.73 131.04-23.73L131.04-23.73Q131.48-23.73 132.45-23.8 133.43-23.88 133.92-23.88L133.92-23.88Q134.11-23.88 134.43-23.85 134.75-23.83 134.85-23.83L134.85-23.83Q135.04-29.2 135.29-32.57L135.29-32.57 137.48-32.03Q137.53-30.86 137.56-29.52 137.58-28.17 137.6-26.54 137.63-24.9 137.63-24.02L137.63-24.02Q138.9-23.93 141.44-23.83 143.98-23.73 145.25-23.63ZM151.15-25.1L151.15-25.1 153.4-24.61Q153.79-20.61 154.08-12.04 154.37-3.47 154.47-1.42L154.47-1.42Q154.03 0.1 152.76 0.1L152.76 0.1Q151.88 0.1 151.08-0.61 150.27-1.32 150.08-2.34L150.08-2.34Q150.18-4.35 150.47-12.77 150.76-21.19 151.15-25.1ZM151.84-33.84L151.84-33.84Q153.15-33.84 154.03-32.69 154.91-31.54 154.91-30.08L154.91-30.08Q154.91-29 154.4-28.34 153.89-27.69 153.01-27.69L153.01-27.69Q151.64-27.69 150.86-28.81 150.08-29.93 150.08-31.45L150.08-31.45Q150.08-32.52 150.54-33.18 151.01-33.84 151.84-33.84ZM173.95-23.54L173.95-23.54 173.46-21.58Q168.73-23.54 166.09-23.54L166.09-23.54Q163.75-23.54 162.79-22.83 161.84-22.12 161.84-19.82L161.84-19.82Q161.84-17.97 163.19-16.75 164.53-15.53 166.43-14.82 168.34-14.11 170.27-13.31 172.19-12.5 173.54-10.94 174.88-9.38 174.88-7.08L174.88-7.08Q174.88-3.96 172.58-1.61 170.29 0.73 166.63 0.78L166.63 0.78Q163.94 0.78 161.6-0.34 159.25-1.46 157.89-3.17L157.89-3.17 159.3-4.64Q159.89-4.39 161.04-3.86 162.18-3.32 162.67-3.15 163.16-2.98 164.11-2.78 165.07-2.59 166.14-2.59L166.14-2.59Q168.43-2.59 169.9-3.61 171.36-4.64 171.36-6.49L171.36-6.49Q171.36-7.71 170.68-8.57 170-9.42 168.87-9.96 167.75-10.5 166.41-10.99 165.07-11.47 163.72-12.08 162.38-12.7 161.26-13.55 160.13-14.4 159.45-15.87 158.77-17.33 158.77-19.34L158.77-19.34Q158.77-22.27 160.35-24.24 161.94-26.22 164.82-26.22L164.82-26.22Q165.94-26.22 167.36-25.88 168.78-25.54 169.61-25.24 170.44-24.95 172.07-24.29 173.71-23.63 173.95-23.54ZM191.19-23.63L191.19-23.63 191.72-21.44Q190.4-21.34 187.67-20.92 184.94-20.51 183.57-20.41L183.57-20.41Q183.81-18.7 183.86-15.92 183.91-13.13 183.98-11.11 184.06-9.08 184.42-7.06 184.79-5.03 185.94-3.96 187.08-2.88 189.04-2.88L189.04-2.88Q190.5-2.88 192.7-3.56L192.7-3.56Q193.63-1.76 194.07-0.93L194.07-0.93Q190.21 0.44 186.25 0.44L186.25 0.44Q184.79 0.44 183.72-0.44 182.64-1.32 182.06-2.64 181.47-3.96 181.1-5.98 180.74-8.01 180.64-9.81 180.54-11.62 180.54-13.96L180.54-13.96Q180.54-15.23 180.57-17.48 180.59-19.73 180.59-20.56L180.59-20.56Q180.1-20.51 178.3-20.48 176.49-20.46 176.2-20.46L176.2-20.46Q175.85-23.73 175.85-23.83L175.85-23.83Q176.2-23.73 176.98-23.73L176.98-23.73Q177.42-23.73 178.39-23.8 179.37-23.88 179.86-23.88L179.86-23.88Q180.05-23.88 180.37-23.85 180.69-23.83 180.79-23.83L180.79-23.83Q180.98-29.2 181.23-32.57L181.23-32.57 183.42-32.03Q183.47-30.86 183.5-29.52 183.52-28.17 183.54-26.54 183.57-24.9 183.57-24.02L183.57-24.02Q184.84-23.93 187.38-23.83 189.92-23.73 191.19-23.63ZM197.09-25.1L197.09-25.1 199.34-24.61Q199.73-20.61 200.02-12.04 200.31-3.47 200.41-1.42L200.41-1.42Q199.97 0.1 198.7 0.1L198.7 0.1Q197.82 0.1 197.02-0.61 196.21-1.32 196.02-2.34L196.02-2.34Q196.12-4.35 196.41-12.77 196.7-21.19 197.09-25.1ZM197.78-33.84L197.78-33.84Q199.09-33.84 199.97-32.69 200.85-31.54 200.85-30.08L200.85-30.08Q200.85-29 200.34-28.34 199.83-27.69 198.95-27.69L198.95-27.69Q197.58-27.69 196.8-28.81 196.02-29.93 196.02-31.45L196.02-31.45Q196.02-32.52 196.48-33.18 196.95-33.84 197.78-33.84ZM221.31-24.22L221.31-24.22 221.06-22.12Q219.01-22.41 217.55-22.41L217.55-22.41Q214.18-22.41 211.98-20.39 209.78-18.36 208.98-15.6 208.17-12.84 208.17-9.47L208.17-9.47Q208.17-7.91 208.37-6.69 208.56-5.47 209.08-4.3 209.59-3.13 210.69-2.47 211.79-1.81 213.4-1.81L213.4-1.81Q215.55-1.81 218.87-2.64L218.87-2.64Q219.89-3.03 220.48-3.03L220.48-3.03Q221.65-3.03 221.89-0.29L221.89-0.29Q217.6 1.07 213.93 1.07L213.93 1.07Q208.61 1.07 206.73-1.54 204.85-4.15 204.85-10.01L204.85-10.01Q204.85-13.43 205.32-15.99 205.78-18.55 206.95-20.78 208.12-23 210.35-24.17 212.57-25.34 215.79-25.34L215.79-25.34Q219.4-25.34 221.31-24.22ZM239.42-23.54L239.42-23.54 238.93-21.58Q234.2-23.54 231.56-23.54L231.56-23.54Q229.22-23.54 228.26-22.83 227.31-22.12 227.31-19.82L227.31-19.82Q227.31-17.97 228.65-16.75 230-15.53 231.9-14.82 233.81-14.11 235.73-13.31 237.66-12.5 239.01-10.94 240.35-9.38 240.35-7.08L240.35-7.08Q240.35-3.96 238.05-1.61 235.76 0.73 232.1 0.78L232.1 0.78Q229.41 0.78 227.07-0.34 224.72-1.46 223.36-3.17L223.36-3.17 224.77-4.64Q225.36-4.39 226.51-3.86 227.65-3.32 228.14-3.15 228.63-2.98 229.58-2.78 230.53-2.59 231.61-2.59L231.61-2.59Q233.9-2.59 235.37-3.61 236.83-4.64 236.83-6.49L236.83-6.49Q236.83-7.71 236.15-8.57 235.47-9.42 234.34-9.96 233.22-10.5 231.88-10.99 230.53-11.47 229.19-12.08 227.85-12.7 226.73-13.55 225.6-14.4 224.92-15.87 224.24-17.33 224.24-19.34L224.24-19.34Q224.24-22.27 225.82-24.24 227.41-26.22 230.29-26.22L230.29-26.22Q231.41-26.22 232.83-25.88 234.24-25.54 235.07-25.24 235.91-24.95 237.54-24.29 239.18-23.63 239.42-23.54Z" opacity="1" transform="matrix(1,0,0,1,0,0)" fill="#fbfbf8" class="wordmark-text-0" data-fill-palette-color="primary" id="text-0"></path></svg></g></svg></g></svg></g></svg></g><g transform="matrix(1,0,0,1,47.70657033126142,0)"><svg viewBox="0 0 300.10685933747715 300.10685933747715" height="300.10685933747715" width="300.10685933747715"><g><svg></svg></g><g id="icon-0"><svg viewBox="0 0 300.10685933747715 300.10685933747715" height="300.10685933747715" width="300.10685933747715"><g><rect width="272.87494061981715" height="272.87494061981715" x="13.615959358829997" y="13.615959358829997" fill="#ffff00" data-fill-palette-color="accent"></rect><rect width="272.87494061981715" height="272.87494061981715" x="1.7763568394002505e-14" y="27.231918717659976" fill="#ffff00" opacity="0.5" data-fill-palette-color="accent"></rect></g><g transform="matrix(1,0,0,1,38.90274102522852,49.229960723009555)"><svg viewBox="0 0 222.3013772870201 201.64693789145804" height="201.64693789145804" width="222.3013772870201"><g><svg xmlns="http://www.w3.org/2000/svg" xmlns:xlink="http://www.w3.org/1999/xlink" version="1.1" x="0" y="0" viewBox="0.000613138350057163 4.645242947937235 99.99993967437007 90.70875705206277" enable-background="new 0 0 100 100" xml:space="preserve" width="222.3013772870201" height="201.64693789145804" class="icon-z$-0" data-fill-palette-color="background" id="z$-0"><g fill="#010536" data-fill-palette-color="background"><path d="M89.533 27.231c0.195-0.231 0.388-0.468 0.57-0.723 2.521-3.512 3.087-8.169 1.683-13.841-1.049-4.236-2.834-6.742-5.461-7.663-4.181-1.463-8.47 1.817-12.615 4.99-2.054 1.573-4.315 3.295-6.213 4.141-5.249-2.385-11.43-3.73-17.497-3.73-6.068 0-12.249 1.346-17.497 3.73-1.897-0.846-4.159-2.568-6.213-4.141-4.146-3.172-8.435-6.453-12.615-4.99-2.627 0.921-4.412 3.427-5.461 7.663-1.405 5.671-0.839 10.329 1.683 13.841 0.183 0.255 0.375 0.491 0.57 0.723-3.902 3.562-13.99 15.187-9.204 36.942l0.863 3.926 2.182-1.211c0.938 6.005 3.943 16.163 13.557 22.646l1.638 1.104 3.619-2.336c2.829 1.983 8.473 5.368 14.031 5.368 0.604 0 1.206-0.056 1.805-0.143 3.086 1.158 6.686 1.827 10.578 1.827 0.159 0 0.308-0.018 0.465-0.021 0.157 0.003 0.306 0.021 0.465 0.021 3.893 0 7.492-0.669 10.578-1.827 0.599 0.087 1.199 0.143 1.804 0.143 5.56 0 11.203-3.385 14.032-5.368l3.619 2.336 1.637-1.104c9.614-6.482 12.619-16.641 13.558-22.646l2.182 1.211 0.863-3.926C103.523 42.418 93.436 30.793 89.533 27.231zM77.349 14.748c2.052-1.571 5.866-4.484 6.995-4.093 0.236 0.083 0.99 0.864 1.631 3.451 0.957 3.866 0.719 6.85-0.707 8.872-0.824 1.168-1.967 1.892-2.986 2.338-2.475-2.958-5.421-5.587-8.711-7.789C74.847 16.662 76.105 15.7 77.349 14.748zM46.602 16.528v5.165l-7.013-2.216-1.083 3.426 7.758 2.449 0.338 0.774v5.292l-0.415-0.579-18.864-3.627-0.678 3.527 17.458 3.358 2.499 4.118h3.384 0.029 3.384l2.499-4.118 17.458-3.358-0.679-3.527-18.863 3.627-0.415 0.579v-5.292l0.338-0.774 7.758-2.449-1.083-3.426-7.013 2.216v-5.165c13.514 1.309 27.486 11.258 30.535 24.895-4.952 7.711-13.884 9.415-13.983 9.433l0.62 3.538c0.41-0.071 8.159-1.503 13.972-7.846 0.002 0.13 0.013 0.258 0.013 0.39 0 1.238-0.136 2.526-0.386 3.846-5.066 6.479-12.868 7.968-12.961 7.984l0.62 3.539c0.321-0.056 5.175-0.948 10.058-4.404-2.109 4.854-5.274 9.806-8.803 14.247 0.032-0.367 0.056-0.738 0.056-1.113 0-6.046-4.391-11.075-10.148-12.095l-2.252-12.745 1.751-0.503c1.331 2.356 4.031 3.749 6.854 3.274 3.247-0.546 5.531-3.37 5.513-6.56l3.92-1.041 0.918-6.438-25.79 6.533 3.165 18.363H42.932l3.165-18.363-25.79-6.533 1.403 6.567 3.435 0.913c-0.02 3.19 2.266 6.014 5.512 6.56 2.823 0.475 5.523-0.918 6.854-3.274l1.724 0.656L37.01 58.94c-5.758 1.02-10.149 6.049-10.149 12.095 0 0.375 0.023 0.746 0.057 1.113-3.528-4.441-6.693-9.394-8.804-14.247 4.884 3.456 9.736 4.349 10.059 4.404l0.619-3.539c-0.092-0.016-7.895-1.505-12.96-7.984-0.25-1.32-0.386-2.607-0.386-3.846 0-0.131 0.01-0.26 0.013-0.39 5.812 6.343 13.562 7.775 13.972 7.846l0.62-3.538c-0.1-0.018-9.031-1.721-13.983-9.433C19.114 27.786 33.088 17.836 46.602 16.528zM14.025 14.106c0.641-2.587 1.394-3.368 1.63-3.451 1.13-0.391 4.944 2.522 6.996 4.093 1.242 0.952 2.502 1.914 3.778 2.779-3.29 2.201-6.237 4.831-8.711 7.789-1.021-0.446-2.163-1.169-2.987-2.338C13.307 20.956 13.067 17.972 14.025 14.106zM25.137 82.335l-1.686-1.37-3.802 2.451c-9.766-7.873-9.776-21.21-9.775-21.352l0.042-5.135-3.522 1.951c-1.747-12.855 2.622-20.844 5.869-24.849-1.797 4.056-2.805 8.414-2.805 12.905 0 12.214 9.761 26.837 19.344 36.31 0.096 0.64 0.281 1.26 0.506 1.869C27.504 84.104 25.982 83.021 25.137 82.335zM30.453 71.035c0-3.831 2.489-7.084 5.935-8.243l-0.488 3.019 11.869 5.792c0.007 0.155 0.011 0.311 0.023 0.465-0.514 4.313-4.187 7.671-8.636 7.671C34.356 79.738 30.453 75.834 30.453 71.035zM50 89.354c-4.719 0-15.248-2.637-15.248-6.854 1.369 0.528 2.851 0.83 4.404 0.83 4.406 0 8.672-2.738 10.844-6.231 0 0-0.005 0.007 0 0 0.006 0.007 0.01-0.007 0.015 0 0 0 0 0-0.015 0 2.171 3.493 6.438 6.231 10.844 6.231 1.553 0 3.035-0.302 4.404-0.83C65.248 86.717 54.718 89.354 50 89.354zM60.844 79.738c-4.449 0-8.122-3.357-8.636-7.671 0.013-0.154 0.017-0.31 0.023-0.465l11.869-5.792-0.488-3.019c3.444 1.159 5.935 4.412 5.935 8.243C69.547 75.834 65.644 79.738 60.844 79.738zM93.605 58.881l-3.521-1.951 0.042 5.135c0.001 0.142-0.01 13.479-9.775 21.352l-3.802-2.451-1.687 1.37c-0.845 0.687-2.366 1.769-4.17 2.781 0.225-0.609 0.409-1.229 0.506-1.869 9.583-9.473 19.344-24.096 19.344-36.31 0-4.491-1.008-8.849-2.806-12.905C90.984 38.037 95.353 46.026 93.605 58.881z" fill="#010536" data-fill-palette-color="background"></path></g></svg></g></svg></g></svg></g></svg></g><g></g></svg></g><defs></defs></svg><rect width="256.7258451824488" height="247.2" fill="none" stroke="none" visibility="hidden"></rect></g></svg></g></svg>