<svg xmlns="http://www.w3.org/2000/svg" version="1.1" xmlns:xlink="http://www.w3.org/1999/xlink" xmlns:svgjs="http://svgjs.dev/svgjs" width="1000" height="1000" viewBox="0 0 1000 1000"><rect width="1000" height="1000" fill="#398378"></rect><g transform="matrix(0.7,0,0,0.7,149.5757633391314,403.85347913965666)"><svg viewBox="0 0 396 109" data-background-color="#398378" preserveAspectRatio="xMidYMid meet" height="275" width="1000" xmlns="http://www.w3.org/2000/svg" xmlns:xlink="http://www.w3.org/1999/xlink"><g id="tight-bounds" transform="matrix(1,0,0,1,0.2399967395770659,-0.05859338297443628)"><svg viewBox="0 0 395.52 109.1171832349722" height="109.1171832349722" width="395.52"><g><svg viewBox="0 0 395.52 109.1171832349722" height="109.1171832349722" width="395.52"><g><svg viewBox="0 0 754.8986900364915 208.26359902040943" height="109.1171832349722" width="395.52"><g><rect width="18.434038654046926" height="205.43354224774404" x="443.7766456912223" y="1.4150283863326933" fill="#ffffff" opacity="1" stroke-width="0" stroke="transparent" fill-opacity="1" class="rect-o-0" data-fill-palette-color="primary" rx="1%" id="o-0" data-palette-color="#ffffff"></rect></g><g transform="matrix(1,0,0,1,0,1.9260570983917518)"><svg viewBox="0 0 395.52 204.41148482362593" height="204.41148482362593" width="395.52"><g id="textblocktransform"><svg viewBox="0 0 395.52 204.41148482362593" height="204.41148482362593" width="395.52" id="textblock"><g><svg viewBox="0 0 395.52 204.41148482362593" height="204.41148482362593" width="395.52"><g transform="matrix(1,0,0,1,0,0)"><svg width="395.52" viewBox="2 -31.299999237060547 60.95000076293945 31.5" height="204.41148482362593" data-palette-color="#ffffff"><g class="wordmark-text-0" data-fill-palette-color="primary" id="text-0"><path d="M36.2-28.9Q36.5-29.95 37.1-30.63 37.7-31.3 38.4-31.3L38.4-31.3Q40.1-31.3 40.85-30.65 41.6-30 41.6-28.4L41.6-28.4Q41.6-27.95 40.9-25.85L40.9-25.85Q39.35-21.1 37.5-14.1L37.5-14.1Q37.05-12.5 36.77-11.3 36.5-10.1 36.3-9.3L36.3-9.3Q35.1-4.15 34.2-1.55L34.2-1.55Q33.9-0.8 33.15-0.38 32.4 0.05 31.55 0.05L31.55 0.05Q30.7 0.05 29.88-0.33 29.05-0.7 28.7-1.2L28.7-1.2Q27.15-4.25 24.88-9.53 22.6-14.8 21.35-18.75L21.35-18.75Q18.25-10.9 15.8-3.6L15.8-3.6Q15.65-3.15 15.48-2.63 15.3-2.1 15.1-1.55L15.1-1.55Q14.75-0.8 14.1-0.38 13.45 0.05 12.65 0.05L12.65 0.05Q11.75 0.05 10.9-0.33 10.05-0.7 9.75-1.2L9.75-1.2Q9.1-2.3 8.38-4.6 7.65-6.9 6.45-11.05L6.45-11.05 5.2-15.3Q3.9-19.45 2.95-23.8 2-28.15 2-29L2-29Q2-30.05 3.05-30.68 4.1-31.3 5.15-31.3L5.15-31.3Q5.75-31.3 6.4-30.93 7.05-30.55 7.25-29.65L7.25-29.65Q9-20.3 12.4-7.95L12.4-7.95Q13.7-11.05 15.28-15.5 16.85-19.95 18.3-24.15L18.3-24.15 18.8-25.65Q19-26.4 19.83-26.83 20.65-27.25 21.5-27.25L21.5-27.25Q22.6-27.25 23.3-26.7 24-26.15 24.2-25.5L24.2-25.5Q24.25-25.3 26.2-19.55 28.15-13.8 30.85-7.95L30.85-7.95Q31.85-10.9 33.25-17.4L33.25-17.4 34-20.7Q35.35-26 36.2-28.9L36.2-28.9ZM59.4-11.25Q59.8-11 60.97-10.33 62.15-9.65 62.55-8.75 62.95-7.85 62.95-6.25L62.95-6.25Q62.95-4.45 61.9-3.08 60.85-1.7 59.2-0.95L59.2-0.95Q58-0.4 56.27-0.1 54.55 0.2 53.55 0.2L53.55 0.2Q52.55 0.2 50.97-0.1 49.4-0.4 48.8-0.65L48.8-0.65Q47.25-1.55 46.12-2.85 45-4.15 45-5.5L45-5.5Q45-6.5 45.65-7.08 46.3-7.65 47.35-7.65L47.35-7.65Q47.85-7.65 48.4-7.28 48.95-6.9 49.15-6.5L49.15-6.5Q49.7-5.2 51-4.55 52.3-3.9 53.65-3.9L53.65-3.9Q55.4-3.9 56.9-4.48 58.4-5.05 58.4-6.05L58.4-6.05Q58.4-6.5 58.17-6.78 57.95-7.05 57.55-7.35L57.55-7.35Q56.85-7.85 55.45-8.18 54.05-8.5 53.65-8.6L53.65-8.6Q51.6-9.05 49.65-9.95L49.65-9.95Q47.7-10.9 46.55-12.2 45.4-13.5 45.4-15.55L45.4-15.55Q45.4-16.9 46.4-18.38 47.4-19.85 48.65-20.45L48.65-20.45Q49.55-20.8 51.67-21.2 53.8-21.6 54.55-21.6L54.55-21.6Q55.7-21.6 57.05-21.38 58.4-21.15 59.1-20.65L59.1-20.65Q60.45-19.85 61.3-18.98 62.15-18.1 62.15-17L62.15-17Q62.15-16.45 61.9-15.83 61.65-15.2 61.3-15.05L61.3-15.05Q60.55-14.7 59.55-14.7L59.55-14.7Q59.1-14.7 58.82-14.95 58.55-15.2 58.1-15.75L58.1-15.75Q57.55-16.6 57.05-16.75L57.05-16.75Q56.45-16.9 55.3-17.13 54.15-17.35 53.75-17.35L53.75-17.35Q52.6-17.35 51.37-16.7 50.15-16.05 50.15-15.2L50.15-15.2Q50.15-14.75 50.52-14.5 50.9-14.25 51.32-14.05 51.75-13.85 51.9-13.8L51.9-13.8Q52.95-13.3 54.22-12.95 55.5-12.6 55.8-12.5L55.8-12.5Q58.5-11.85 59.4-11.25L59.4-11.25Z" fill="#ffffff" data-fill-palette-color="primary"></path></g></svg></g></svg></g></svg></g></svg></g><g transform="matrix(1,0,0,1,510.46733003649155,0)"><svg viewBox="0 0 244.43135999999998 208.26359902040943" height="208.26359902040943" width="244.43135999999998"><g><svg xmlns="http://www.w3.org/2000/svg" xmlns:xlink="http://www.w3.org/1999/xlink" version="1.1" x="0" y="0" viewBox="3.2272701263427734 10.14855670928955 93.54618835449219 79.7044448852539" enable-background="new 0 0 100 100" xml:space="preserve" height="208.26359902040943" width="244.43135999999998" class="icon-icon-0" data-fill-palette-color="accent" id="icon-0"><g fill="#ffffff" data-fill-palette-color="accent"><path fill="#ffffff" d="M94.116 33.153c0.33-1.323 4.05-15.402 2.09-18.169-0.571-0.807 0.82 5.961-8.594 13.966-0.51-0.345-1.082-8.811-1.311-9.088-0.688-0.835-4.954 7.191-4.868 6.314 0.076-0.78-0.437-3.576-1.164-5.193 0.785-0.836 1.418-2.108 1.713-3.555 0.445-2.185-0.586-4.925-1.441-4.981-0.87-0.059-5.488 3.837-5.729 5.891-1.002 0.441-3.227-1.042-4.938-1.213 0.12-0.408 1.198-1.769 0.983-3.134-0.231-1.457-2.295-3.931-3.122-3.84-0.158 0.017-0.36 0.851-0.999 1.669-0.624 0.8-1.678 1.567-2.313 2.986-2.192-0.647-9.723-3.785-13.967-3.223-3.995 0.529-6.309 5.2-9.849 6.088-1.84 0.462-8.604-2.856-10.777-2.941-0.964-0.039-4.498 1.055-6.77 1.688-2.129 0.593-12.535 10.028-13.52 10.923-0.985 0.896-5.193 8.684-5.909 10.206-0.716 1.522-0.382 9.017 0.244 12.15s1.712 7.168 2.11 8.556c0.365 1.273 1.078 6.677 1.048 7.854C6.956 69.203 8.952 78.158 7.75 81.684c-0.38 1.114 0.129 2.385 1.343 3.67 1.286 1.361 6.125 1.374 7.047 0.221 0.685-0.855-1.825-4.335-0.97-13.006 0.177-1.791-0.519-6.78-0.285-8.385 0.246-1.688 1.371-6.047 2.624-6.763 1.801 1.548 5.875 4.88 7.882 5.93 0.627 1.074-2.26 7.917-2.349 10.244-0.089 2.328 3.308 6.302 3.308 7.645s0.634 2.462 1.617 2.824c2.946 1.082 7.151 0.609 6.882-1.143s-3.422-5.561-2.121-8.4c0.708-1.544 2.919-4.52 2.775-8.326-0.008-0.229 3.134 0.18 3.939 0.357 0.806 0.18 4.835 9.67 4.924 10.834 0.089 1.164-0.546 7.693-0.278 9.215 0.269 1.522 5.139 3.251 5.86 3.252 1.961 0.003 3.787-1.612 4.24-2.404 0.785-1.374-0.063-3.667-0.063-4.602s-0.49-8.353-0.682-9.708c-0.146-1.037-3.323-7.198-2.339-7.473 1.198-0.333 4.413-3.514 5.259-3.858 1.587-0.647 1.017-0.135 1.53 1.349 0.33 0.955 1.953 3.607 2.109 4.221 0.908 3.548 2.085 9.475 2 10.993-0.076 1.365-0.63 4.074-0.003 4.751 0.626 0.678 3.504 2.642 5.375 2.323 5.577-0.953 4.094-1.663 4.322-3.978 0.121-1.225-1.719-12.788-1.541-14.488 0.18-1.701 0.174-4.097 0.263-5.888 0.09-1.79 2.362-8.373 1.791-12.713 4.792 1.857 8.499 2.116 12.714 0.717 1.033-0.344 2.693 0.425 3.402 0 1.281-0.769 3.58-1.043 4.477-2.023 1.128-1.233 2.806-4.468 1.996-5.99C93.992 39.56 93.317 36.347 94.116 33.153zM75.245 18.615c0-1.297 3.326-4.515 5.152-5.553 0.488 1.038 1.368 2.116 1.125 3.916-0.234 1.735-0.911 2.486-1.719 3.769-0.955-0.962-2.997-1.678-4.613-2.1C75.208 18.636 75.228 18.627 75.245 18.615zM90.132 33.607c-1.889 2.127-0.959 4.953-0.479 6.231s-0.275 5.833-1.074 6.152c-0.799 0.32-3.583-0.275-4.358-0.559-0.961-0.352-3.799-0.667-4.736-1.187-4.612-2.558 1.54 1.665 1.221 2.465-0.319 0.799-3.995 1.277-5.913 0.479-1.917-0.799-2.556-1.597-4.953-1.757s-6.313-2.249-8.149-5.753c-1.131-2.155 2.237-12.144-0.639-10.067-2.854 2.06-4.555 15.82-7.99 18.216-2.961 2.065-8.31 5.593-7.99 7.189 0.319 1.599 5.693 16.04 6.581 19.135 0.261 0.907 0.207 10.359 0.046 12.158-0.2 2.233-2.242 2.279-5.904 0.017-0.675-0.417-0.014-7.793-0.105-9.036-0.055-0.762-5.133-11.104-5.716-12.353-1.119-2.397-5.682-11.633-6.727-13.436-3.001-5.175 0.32 1.918-1.119 3.515-1.438 1.599-7.031 2.237-10.387 1.599-3.355-0.64-3.783-0.423-5.433-1.917-2.383-2.158-5.015-9.76-5.175-11.518-0.16-1.757-1.394-8.444-1.691-6.842-0.983 5.309 3.77 18.852 3.19 21.555-0.479 2.236 1.001 25.591 1.012 26.207 0.037 1.904-3.172 0.311-4.261-0.533-1.746-1.354 1.065-5.753-0.746-12.251C7.603 67.608 7.784 62.476 6.68 58.37c-2.59-9.626-3.197-11.571-2.626-20.183 0.101-1.516 4.832-9.059 5.735-10.23 0.577-0.748 10.618-9.253 12.827-10.729 0.728-0.486 4.704-1.558 6.881-1.849 2.082-0.278 8.022 2.928 10.579 2.989 3.303 0.079 7.393-6.135 10.892-6.292 2.743-0.124 12.609 2.944 13.567 3.264 0.554-1.659 2.557-2.846 3.066-4.444-0.055 1.967-2.557 3.215-2.876 5.452s0.588 5.375 1.266 6.502c0.707 1.179 1.971 1.636 2.713 1.376 0.787-0.275 1.382-1.667 0.708-2.752-0.629-1.013-2.478-0.512 0.377-3.854 1.074 0.177 3.393 1.637 4.956 1.214 1.231 0.33 4.576 1.837 5.002 2.272 0.77 1.447 1.129 5.076 1.485 6.861 1.551-2.142 3.821-7.109 4.42-7.153 0.511-0.039-0.579 7.13 0.011 8.409 0.135 0.292 1.051 0.962 2.142 0.147 8.483-6.34 8.042-12.907 8.514-12.479C96.809 17.338 95.418 27.649 90.132 33.607z" data-fill-palette-color="accent"></path><path fill="#ffffff" d="M74.143 34.541c0.768 0.292 1.885 1.699 2.585 0.369C76.755 33.735 74.91 34.249 74.143 34.541z" data-fill-palette-color="accent"></path><path fill="#ffffff" d="M88.027 42.136c-0.443-0.296-1.709-0.75-2.438-0.211-0.421 0.31-0.918 1.51-0.692 1.729 0.229 0.222 3.048 0.94 3.331 0.651C88.745 43.778 88.471 42.431 88.027 42.136z" data-fill-palette-color="accent"></path></g></svg></g></svg></g></svg></g></svg></g><defs></defs></svg><rect width="395.52" height="109.1171832349722" fill="none" stroke="none" visibility="hidden"></rect></g></svg></g></svg>